<svg viewBox="0 0 25 24" fill="currentColor" xmlns="http://www.w3.org/2000/svg">
<path d="M21.2452 3.32851C20.8547 2.93798 20.2215 2.93798 19.831 3.32851L12.5366 10.6229L5.24226 3.32851C4.85174 2.93798 4.21857 2.93798 3.82805 3.32851C3.43753 3.71903 3.43752 4.3522 3.82805 4.74272L11.1224 12.0371L3.82807 19.3314C3.43755 19.722 3.43755 20.3551 3.82807 20.7457C4.21859 21.1362 4.85176 21.1362 5.24228 20.7457L12.5366 13.4513L19.831 20.7457C20.2215 21.1362 20.8547 21.1362 21.2452 20.7457C21.6357 20.3551 21.6357 19.722 21.2452 19.3315L13.9509 12.0371L21.2452 4.74272C21.6357 4.3522 21.6357 3.71903 21.2452 3.32851Z" fill="currentColor"/>
</svg>
