<svg width="24" height="24" viewBox="0 0 24 24" fill="none" xmlns="http://www.w3.org/2000/svg">
<path d="M20.7452 3.32854C20.3547 2.93801 19.7215 2.93801 19.331 3.32854L12.0366 10.6229L4.74226 3.32854C4.35174 2.93802 3.71857 2.93802 3.32805 3.32854C2.93753 3.71906 2.93752 4.35223 3.32805 4.74275L10.6224 12.0371L3.32807 19.3315C2.93755 19.722 2.93755 20.3552 3.32807 20.7457C3.71859 21.1362 4.35176 21.1362 4.74228 20.7457L12.0366 13.4513L19.331 20.7457C19.7215 21.1362 20.3547 21.1362 20.7452 20.7457C21.1357 20.3552 21.1357 19.722 20.7452 19.3315L13.4509 12.0371L20.7452 4.74275C21.1357 4.35223 21.1357 3.71906 20.7452 3.32854Z" fill="black" fill-opacity="0.38"/>
</svg>
