<svg viewBox="0 0 22 18" fill="none" xmlns="http://www.w3.org/2000/svg">
<path fill-rule="evenodd" clip-rule="evenodd" d="M8 3C8 1.34315 6.65685 0 5 0H3C1.34315 0 0 1.34315 0 3V5C0 6.65685 1.34315 8 3 8H5C6.65685 8 8 6.65685 8 5V3ZM6 3C6 2.44772 5.55228 2 5 2H3C2.44772 2 2 2.44772 2 3V5C2 5.55228 2.44772 6 3 6H5C5.55228 6 6 5.55228 6 5V3Z" fill="currentColor"/>
<path fill-rule="evenodd" clip-rule="evenodd" d="M8 13C8 11.3431 6.65685 10 5 10H3C1.34315 10 0 11.3431 0 13V15C0 16.6569 1.34315 18 3 18H5C6.65685 18 8 16.6569 8 15V13ZM6 13C6 12.4477 5.55228 12 5 12H3C2.44772 12 2 12.4477 2 13V15C2 15.5523 2.44772 16 3 16H5C5.55228 16 6 15.5523 6 15V13Z" fill="currentColor"/>
<path d="M10 4C10 3.44772 10.4477 3 11 3H21C21.5523 3 22 3.44772 22 4C22 4.55228 21.5523 5 21 5H11C10.4477 5 10 4.55228 10 4Z" fill="currentColor"/>
<path d="M10 14C10 13.4477 10.4477 13 11 13H21C21.5523 13 22 13.4477 22 14C22 14.5523 21.5523 15 21 15H11C10.4477 15 10 14.5523 10 14Z" fill="currentColor"/>
</svg>
