<svg width="22" height="22" viewBox="0 0 22 22" fill="none" xmlns="http://www.w3.org/2000/svg">
<path d="M3 0H10C10.5523 0 11 0.447715 11 1C11 1.55228 10.5523 2 10 2H3C2.44772 2 2 2.44772 2 3V19C2 19.5523 2.44772 20 3 20H19C19.5523 20 20 19.5523 20 19V12C20 11.4477 20.4477 11 21 11C21.5523 11 22 11.4477 22 12V19C22 20.6569 20.6569 22 19 22H3C1.34315 22 0 20.6569 0 19V3C0 1.34315 1.34315 0 3 0Z" fill="#0F0F0F"/>
<path fill-rule="evenodd" clip-rule="evenodd" d="M20.3056 0.87868C19.1341 -0.292893 17.2346 -0.292893 16.063 0.87868L5.38904 11.5526C4.9856 11.9561 4.70557 12.4662 4.5818 13.0232L4.04903 15.4206C3.73147 16.8496 5.00627 18.1244 6.43526 17.8069L8.83272 17.2741C9.38969 17.1503 9.89981 16.8703 10.3033 16.4669L20.9772 5.79289C22.1488 4.62132 22.1488 2.72183 20.9772 1.55025L20.3056 0.87868ZM17.4772 2.29289C17.8677 1.90237 18.5009 1.90237 18.8914 2.29289L19.563 2.96447C19.9535 3.35499 19.9535 3.98816 19.563 4.37868L17.6414 6.30026L15.5556 4.21448L17.4772 2.29289ZM14.1414 5.62869L6.80325 12.9669C6.66877 13.1013 6.57543 13.2714 6.53417 13.457L6.0014 15.8545L8.39886 15.3217C8.58452 15.2805 8.75456 15.1871 8.88904 15.0526L16.2272 7.71448L14.1414 5.62869Z" fill="#0F0F0F"/>
</svg>
