<svg width="18" height="22" viewBox="0 0 18 22" fill="none" xmlns="http://www.w3.org/2000/svg">
<path d="M10.5 15.5854C10.5 16.4138 9.82843 17.0854 9 17.0854C8.17157 17.0854 7.5 16.4138 7.5 15.5854C7.5 14.7569 8.17157 14.0854 9 14.0854C9.82843 14.0854 10.5 14.7569 10.5 15.5854Z" fill="#0F0F0F"/>
<path fill-rule="evenodd" clip-rule="evenodd" d="M2.94209 9.00055C2.93921 8.87333 2.9375 8.73733 2.9375 8.59375C2.9375 7.70739 3.00254 6.50382 3.27381 5.28307C3.54278 4.07271 4.03242 2.76302 4.94009 1.74189C5.8791 0.685497 7.21323 0 9 0C10.7868 0 12.1209 0.685497 13.0599 1.74189C13.9676 2.76302 14.4572 4.07271 14.7262 5.28307C14.9975 6.50382 15.0625 7.70739 15.0625 8.59375C15.0625 8.73733 15.0608 8.87333 15.0579 9.00055C16.688 9.03141 18 10.3625 18 12V19C18 20.6569 16.6569 22 15 22H3C1.34315 22 0 20.6569 0 19V12C0 10.3625 1.31196 9.03141 2.94209 9.00055ZM13.0573 9C13.0605 8.87465 13.0625 8.73868 13.0625 8.59375C13.0625 7.79261 13.0025 6.74618 12.7738 5.71693C12.5428 4.67729 12.1574 3.73698 11.5651 3.07061C11.0041 2.4395 10.2132 2 9 2C7.78677 2 6.9959 2.4395 6.43491 3.07061C5.84258 3.73698 5.45722 4.67729 5.22619 5.71693C4.99747 6.74618 4.9375 7.79261 4.9375 8.59375C4.9375 8.73868 4.93946 8.87465 4.94265 9H13.0573ZM16 12C16 11.4477 15.5523 11 15 11H3C2.44772 11 2 11.4477 2 12V19C2 19.5523 2.44772 20 3 20H15C15.5523 20 16 19.5523 16 19V12Z" fill="#0F0F0F"/>
</svg>
