<svg viewBox="0 0 25 24" fill="none" xmlns="http://www.w3.org/2000/svg">
<path d="M23.5 4C23.5 2.34315 22.1569 1 20.5 1H16.5C15.9477 1 15.5 1.44772 15.5 2C15.5 2.55228 15.9477 3 16.5 3H20.5C21.0523 3 21.5 3.44772 21.5 4V8C21.5 8.55228 21.9477 9 22.5 9C23.0523 9 23.5 8.55228 23.5 8V4Z" fill="currentColor"/>
<path d="M23.5 16C23.5 15.4477 23.0523 15 22.5 15C21.9477 15 21.5 15.4477 21.5 16V20C21.5 20.5523 21.0523 21 20.5 21H16.5C15.9477 21 15.5 21.4477 15.5 22C15.5 22.5523 15.9477 23 16.5 23H20.5C22.1569 23 23.5 21.6569 23.5 20V16Z" fill="currentColor"/>
<path d="M4.5 21C3.94772 21 3.5 20.5523 3.5 20V16C3.5 15.4477 3.05228 15 2.5 15C1.94772 15 1.5 15.4477 1.5 16V20C1.5 21.6569 2.84315 23 4.5 23H8.5C9.05228 23 9.5 22.5523 9.5 22C9.5 21.4477 9.05228 21 8.5 21H4.5Z" fill="currentColor"/>
<path d="M1.5 8C1.5 8.55228 1.94772 9 2.5 9C3.05228 9 3.5 8.55228 3.5 8V4C3.5 3.44772 3.94772 3 4.5 3H8.5C9.05228 3 9.5 2.55228 9.5 2C9.5 1.44772 9.05228 1 8.5 1H4.5C2.84315 1 1.5 2.34315 1.5 4V8Z" fill="currentColor"/>
<path fill-rule="evenodd" clip-rule="evenodd" d="M11.5 6C11.5 5.44772 11.0523 5 10.5 5H6.5C5.94772 5 5.5 5.44772 5.5 6V10C5.5 10.5523 5.94772 11 6.5 11H10.5C11.0523 11 11.5 10.5523 11.5 10V6ZM9.5 7.5C9.5 7.22386 9.27614 7 9 7H8C7.72386 7 7.5 7.22386 7.5 7.5V8.5C7.5 8.77614 7.72386 9 8 9H9C9.27614 9 9.5 8.77614 9.5 8.5V7.5Z" fill="currentColor"/>
<path fill-rule="evenodd" clip-rule="evenodd" d="M18.5 13C19.0523 13 19.5 13.4477 19.5 14V18C19.5 18.5523 19.0523 19 18.5 19H14.5C13.9477 19 13.5 18.5523 13.5 18V14C13.5 13.4477 13.9477 13 14.5 13H18.5ZM15.5 15.5C15.5 15.2239 15.7239 15 16 15H17C17.2761 15 17.5 15.2239 17.5 15.5V16.5C17.5 16.7761 17.2761 17 17 17H16C15.7239 17 15.5 16.7761 15.5 16.5V15.5Z" fill="currentColor"/>
<path d="M14.5 5C13.9477 5 13.5 5.44772 13.5 6C13.5 6.55229 13.9477 7 14.5 7H17C17.2761 7 17.5 7.22386 17.5 7.5V10C17.5 10.5523 17.9477 11 18.5 11C19.0523 11 19.5 10.5523 19.5 10V6C19.5 5.44772 19.0523 5 18.5 5H14.5Z" fill="currentColor"/>
<path d="M14.5 8C13.9477 8 13.5 8.44771 13.5 9V10C13.5 10.5523 13.9477 11 14.5 11C15.0523 11 15.5 10.5523 15.5 10V9C15.5 8.44772 15.0523 8 14.5 8Z" fill="currentColor"/>
<path d="M6.5 13C5.94772 13 5.5 13.4477 5.5 14V16C5.5 16.5523 5.94772 17 6.5 17C7.05229 17 7.5 16.5523 7.5 16V15.5C7.5 15.2239 7.72386 15 8 15H10.5C11.0523 15 11.5 14.5523 11.5 14C11.5 13.4477 11.0523 13 10.5 13H6.5Z" fill="currentColor"/>
<path d="M10.5 17C9.94771 17 9.5 17.4477 9.5 18C9.5 18.5523 9.94771 19 10.5 19C11.0523 19 11.5 18.5523 11.5 18C11.5 17.4477 11.0523 17 10.5 17Z" fill="currentColor"/>
</svg>
