<svg viewBox="0 0 22 22" fill="none" xmlns="http://www.w3.org/2000/svg">
<path d="M3.52185 6H6C6.55229 6 7 6.44772 7 7C7 7.55229 6.55228 8 6 8H2C0.895431 8 0 7.10457 0 6V2C0 1.44772 0.447715 1 1 1C1.55228 1 2 1.44772 2 2V4.6754C3.26953 2.8688 5.06062 1.47676 7.14852 0.696306C9.6633 -0.243709 12.435 -0.231581 14.9415 0.730407C17.448 1.69239 19.5161 3.53782 20.7562 5.91897C21.9963 8.30013 22.3228 11.0526 21.6741 13.6578C21.0254 16.263 19.4464 18.541 17.2345 20.0626C15.0226 21.5842 12.3306 22.2444 9.66573 21.9188C7.00083 21.5931 4.54702 20.3041 2.76664 18.2946C1.20818 16.5356 0.259932 14.3309 0.0462456 12.0078C-0.00434303 11.4579 0.452161 11.0088 1.00445 11.0084C1.55673 11.0079 2.00351 11.4566 2.06526 12.0055C2.27138 13.8374 3.03712 15.5706 4.27027 16.9625C5.7255 18.605 7.73118 19.6586 9.9094 19.9247C12.0876 20.1909 14.288 19.6513 16.0959 18.4075C17.9039 17.1638 19.1945 15.3018 19.7247 13.1724C20.2549 11.043 19.9881 8.79319 18.9745 6.8469C17.9608 4.90061 16.2704 3.3922 14.2217 2.6059C12.173 1.8196 9.90742 1.80968 7.8519 2.57803C6.11008 3.22911 4.62099 4.40094 3.57993 5.92229C3.56156 5.94914 3.54217 5.97505 3.52185 6Z" fill="currentColor"/>
</svg>
