<svg viewBox="0 0 22 22" fill="none" xmlns="http://www.w3.org/2000/svg">
<path fill-rule="evenodd" clip-rule="evenodd" d="M17.1716 0C17.702 0 18.2107 0.210714 18.5858 0.585786L21.4142 3.41421C21.7893 3.78929 22 4.29799 22 4.82843V19C22 20.6569 20.6569 22 19 22H3C1.34315 22 0 20.6569 0 19V3C0 1.34315 1.34315 0 3 0H17.1716ZM3 2C2.44772 2 2 2.44772 2 3V19C2 19.5523 2.44772 20 3 20L4 20L4 14C4 12.3431 5.34315 11 7 11L15 11C16.6569 11 18 12.3431 18 14V20H19C19.5523 20 20 19.5523 20 19V5.82843C20 5.29799 19.7893 4.78929 19.4142 4.41421L17.5858 2.58579C17.2107 2.21071 16.702 2 16.1716 2H16V4C16 5.65685 14.6569 7 13 7H9C7.34315 7 6 5.65685 6 4V2H3ZM16 20V14C16 13.4477 15.5523 13 15 13L7 13C6.44772 13 6 13.4477 6 14L6 20L16 20ZM8 2H14V4C14 4.55228 13.5523 5 13 5H9C8.44772 5 8 4.55228 8 4V2Z" fill="currentColor"/>
</svg>
