<svg viewBox="0 0 25 24" fill="none" xmlns="http://www.w3.org/2000/svg">
<path fill-rule="evenodd" clip-rule="evenodd" d="M17.5392 15.6244C18.7714 14.084 19.5082 12.1301 19.5082 10.0041C19.5082 5.03127 15.4769 1 10.5041 1C5.53127 1 1.5 5.03127 1.5 10.0041C1.5 14.9769 5.53127 19.0082 10.5041 19.0082C12.6301 19.0082 14.584 18.2714 16.1244 17.0392L21.7921 22.707C22.1828 23.0977 22.8163 23.0977 23.207 22.707C23.5977 22.3163 23.5977 21.6828 23.207 21.2921L17.5392 15.6244ZM10.5041 17.0173C6.6308 17.0173 3.49087 13.8774 3.49087 10.0041C3.49087 6.1308 6.6308 2.99087 10.5041 2.99087C14.3774 2.99087 17.5173 6.1308 17.5173 10.0041C17.5173 13.8774 14.3774 17.0173 10.5041 17.0173Z" fill="currentColor"/>
</svg>
