<svg width="22" height="24" viewBox="0 0 22 24" fill="none" xmlns="http://www.w3.org/2000/svg">
<circle cx="11" cy="12.5" r="11" fill="#E1F5FE"/>
<path d="M14.4453 16.1875V17.5H7.77344V16.3721L11.0137 12.8379C11.3691 12.4368 11.6494 12.0905 11.8545 11.7988C12.0596 11.5072 12.2031 11.2451 12.2852 11.0127C12.3717 10.7757 12.415 10.5456 12.415 10.3223C12.415 10.0078 12.3558 9.7321 12.2373 9.49512C12.1234 9.25358 11.9548 9.06445 11.7314 8.92773C11.5081 8.78646 11.237 8.71582 10.918 8.71582C10.5488 8.71582 10.2389 8.79557 9.98828 8.95508C9.73763 9.11458 9.5485 9.33561 9.4209 9.61816C9.29329 9.89616 9.22949 10.2152 9.22949 10.5752H7.58203C7.58203 9.99642 7.71419 9.46777 7.97852 8.98926C8.24284 8.50618 8.62565 8.12337 9.12695 7.84082C9.62826 7.55371 10.2321 7.41016 10.9385 7.41016C11.6038 7.41016 12.1689 7.52181 12.6338 7.74512C13.0986 7.96842 13.4518 8.28516 13.6934 8.69531C13.9395 9.10547 14.0625 9.59082 14.0625 10.1514C14.0625 10.4613 14.0124 10.7689 13.9121 11.0742C13.8118 11.3796 13.6683 11.6849 13.4814 11.9902C13.2992 12.291 13.0827 12.5941 12.832 12.8994C12.5814 13.2002 12.3057 13.5055 12.0049 13.8154L9.85156 16.1875H14.4453Z" fill="black" fill-opacity="0.6"/>
</svg>
