<svg width="12" height="12" viewBox="0 0 12 12" fill="none" xmlns="http://www.w3.org/2000/svg">
<path fill-rule="evenodd" clip-rule="evenodd" d="M10 11.5L6 11.5C5.72386 11.5 5.5 11.2761 5.5 11C5.5 10.7239 5.72386 10.5 6 10.5L10 10.5C10.2761 10.5 10.5 10.2761 10.5 10L10.5 2C10.5 1.72386 10.2761 1.5 10 1.5L6 1.5C5.72386 1.5 5.5 1.27614 5.5 1C5.5 0.723858 5.72386 0.5 6 0.5L10 0.5C10.8284 0.5 11.5 1.17157 11.5 2L11.5 10C11.5 10.8284 10.8284 11.5 10 11.5Z" fill="#D32F2F"/>
<path fill-rule="evenodd" clip-rule="evenodd" d="M9.34404 5.34506C9.66979 5.72092 9.66979 6.27906 9.34404 6.65492L7.25569 9.06456C6.64942 9.7641 5.5 9.33533 5.5 8.40963L5.5 7.49999L2.5 7.49999C1.94771 7.49999 1.5 7.05228 1.5 6.49999L1.5 5.49999C1.5 4.94771 1.94772 4.49999 2.5 4.49999L5.5 4.49999L5.5 3.59035C5.5 2.66465 6.64942 2.23588 7.25569 2.93542L9.34404 5.34506ZM8.30455 6.32746C8.46742 6.13952 8.46742 5.86046 8.30455 5.67252L6.5 3.59035L6.5 4.74999C6.5 5.1642 6.16421 5.49999 5.75 5.49999L2.5 5.49999L2.5 6.49999L5.75 6.49999C6.16421 6.49999 6.5 6.83578 6.5 7.24999L6.5 8.40963L8.30455 6.32746Z" fill="#D32F2F"/>
</svg>
