<svg width="24" height="24" viewBox="0 0 24 24" fill="none" xmlns="http://www.w3.org/2000/svg">
<path fill-rule="evenodd" clip-rule="evenodd" d="M10.1548 3.74068C9.13309 4.24326 7.70278 4.75901 5.07024 4.93689C4.43317 4.97993 4.01741 5.47217 4.03536 5.965C4.13505 8.70059 4.4513 11.4217 5.05533 13.6538C5.67352 15.9383 6.53469 17.4879 7.55472 18.1679C9.16153 19.2392 10.4838 20.1681 11.3706 20.8038C11.7447 21.072 12.2553 21.072 12.6295 20.8038C13.5163 20.1681 14.8385 19.2392 16.4453 18.1679C17.4654 17.4879 18.3265 15.9383 18.9447 13.6539C19.5487 11.4218 19.865 8.70066 19.9647 5.965C19.9826 5.47217 19.5669 4.97993 18.9298 4.93689C16.2973 4.75901 14.8669 4.24326 13.8452 3.74068C13.5533 3.5971 13.3276 3.47746 13.1423 3.37923C12.6353 3.11045 12.4306 3.00195 12 3.00195C11.5695 3.00195 11.3648 3.11045 10.8577 3.37923C10.6724 3.47746 10.4467 3.5971 10.1548 3.74068ZM9.6863 1.72824C10.3022 1.39456 11.0268 1.00195 12 1.00195C12.9732 1.00195 13.6979 1.39456 14.3137 1.72825C14.4571 1.80594 14.5946 1.88044 14.728 1.94605C15.503 2.32729 16.6774 2.78014 19.0646 2.94144C20.6317 3.04732 22.0258 4.32298 21.9633 6.03782C21.8606 8.8586 21.5333 11.7445 20.8753 14.1763C20.2313 16.5559 19.2117 18.7274 17.5547 19.8321C15.9701 20.8885 14.6667 21.8042 13.7947 22.4293C12.724 23.1969 11.276 23.1969 10.2053 22.4293C9.33333 21.8042 8.02995 20.8885 6.44532 19.8321C4.78829 18.7274 3.7687 16.5559 3.12477 14.1763C2.46669 11.7444 2.13947 8.85853 2.03669 6.03783C1.9742 4.32298 3.36836 3.04732 4.93541 2.94144C7.32259 2.78014 8.49699 2.32729 9.27201 1.94605C9.40539 1.88044 9.5429 1.80594 9.6863 1.72824Z" fill="#0D47A1"/>
</svg>
