<svg width="24" height="24" viewBox="0 0 24 24" fill="none" xmlns="http://www.w3.org/2000/svg">
<path fill-rule="evenodd" clip-rule="evenodd" d="M23 4C23 2.34315 21.6569 1 20 1H4C2.34315 1 1 2.34315 1 4V14C1 15.6569 2.34315 17 4 17H5C5.55228 17 6 16.5523 6 16C6 15.4477 5.55228 15 5 15H4C3.44772 15 3 14.5523 3 14L3 8H21V14C21 14.5523 20.5523 15 20 15H19C18.4477 15 18 15.4477 18 16C18 16.5523 18.4477 17 19 17H20C21.6569 17 23 15.6569 23 14V4ZM21 6V4C21 3.44772 20.5523 3 20 3H4C3.44772 3 3 3.44771 3 4V6H21Z" fill="#0D47A1"/>
<path fill-rule="evenodd" clip-rule="evenodd" d="M9.06338 14.1371C8.96627 13.5629 9.50546 13.0826 10.0753 13.2358L10.5068 13.3518C10.8493 13.4438 11.2126 13.3054 11.4032 13.0102L11.8167 12.3697C12.135 11.8768 12.865 11.8768 13.1833 12.3697L13.5968 13.0102C13.7874 13.3054 14.1507 13.4438 14.4932 13.3518L14.9247 13.2358C15.4945 13.0826 16.0337 13.5629 15.9366 14.1371L15.8302 14.7665C15.7755 15.09 15.9271 15.4135 16.2124 15.5823L16.6068 15.8155C17.1311 16.1256 17.1311 16.8744 16.6068 17.1845L16.2124 17.4177C15.9271 17.5865 15.7755 17.91 15.8302 18.2335L15.9366 18.8629C16.0337 19.4371 15.4945 19.9174 14.9247 19.7642L14.4932 19.6482C14.1507 19.5562 13.7874 19.6946 13.5968 19.9898L13.1833 20.6303C12.865 21.1232 12.135 21.1232 11.8167 20.6303L11.4032 19.9898C11.2126 19.6946 10.8493 19.5562 10.5068 19.6482L10.0753 19.7642C9.50546 19.9174 8.96627 19.4371 9.06338 18.8629L9.16981 18.2335C9.22451 17.91 9.07293 17.5865 8.78763 17.4177L8.3932 17.1845C7.86893 16.8744 7.86893 16.1256 8.3932 15.8155L8.78763 15.5823C9.07293 15.4135 9.22451 15.09 9.16981 14.7665L9.06338 14.1371ZM11.2852 14.1053H10.0703V15.3026L8.85552 16.5L10.0703 17.6974V18.8947H11.2852L12.5 20.0921L13.7148 18.8947H14.9297V17.6974L16.1445 16.5L14.9297 15.3026V14.1053H13.7148L12.5 12.9079L11.2852 14.1053Z" fill="#0D47A1"/>
<path d="M14.3211 16.5C14.3211 17.4919 13.5052 18.2961 12.4988 18.2961C11.4924 18.2961 10.6766 17.4919 10.6766 16.5C10.6766 15.5081 11.4924 14.7039 12.4988 14.7039C13.5052 14.7039 14.3211 15.5081 14.3211 16.5ZM11.4853 16.5C11.4853 17.0517 11.9391 17.499 12.4988 17.499C13.0586 17.499 13.5124 17.0517 13.5124 16.5C13.5124 15.9483 13.0586 15.501 12.4988 15.501C11.9391 15.501 11.4853 15.9483 11.4853 16.5Z" fill="#0D47A1"/>
<path fill-rule="evenodd" clip-rule="evenodd" d="M10.0703 14.1053H11.2852L12.5 12.9079L13.7148 14.1053H14.9297V15.3026L16.1445 16.5L14.9297 17.6974V18.8947H13.7148L12.5 20.0921L11.2852 18.8947H10.0703V17.6974L8.85552 16.5L10.0703 15.3026V14.1053ZM12.4988 18.2961C13.5052 18.2961 14.3211 17.4919 14.3211 16.5C14.3211 15.5081 13.5052 14.7039 12.4988 14.7039C11.4924 14.7039 10.6766 15.5081 10.6766 16.5C10.6766 17.4919 11.4924 18.2961 12.4988 18.2961Z" fill="#0D47A1"/>
</svg>
