<svg width="24" height="24" viewBox="0 0 24 24" fill="none" xmlns="http://www.w3.org/2000/svg">
<path fill-rule="evenodd" clip-rule="evenodd" d="M23 4C23 2.34315 21.6569 1 20 1H4C2.34315 1 1 2.34315 1 4V14C1 15.6569 2.34315 17 4 17H5C5.55228 17 6 16.5523 6 16C6 15.4477 5.55228 15 5 15H4C3.44772 15 3 14.5523 3 14L3 8H21V14C21 14.5523 20.5523 15 20 15H19C18.4477 15 18 15.4477 18 16C18 16.5523 18.4477 17 19 17H20C21.6569 17 23 15.6569 23 14V4ZM21 6V4C21 3.44772 20.5523 3 20 3H4C3.44772 3 3 3.44771 3 4V6H21Z" fill="#0D47A1"/>
<path d="M14.5 14.45C14.5 15.8307 13.3807 16.95 12 16.95C10.6193 16.95 9.49997 15.8307 9.49997 14.45C9.49997 13.0693 10.6193 11.95 12 11.95C13.3807 11.95 14.5 13.0693 14.5 14.45Z" fill="#0D47A1"/>
<path d="M16 22H7.99997C7.44769 22 7.01317 21.5433 7.20934 21.027C7.6029 19.9913 8.73625 18.5 12 18.5C15.2637 18.5 16.397 19.9913 16.7906 21.027C16.9868 21.5433 16.5523 22 16 22Z" fill="#0D47A1"/>
</svg>
